<?xml version="1.0" encoding="utf-8"?>
<!-- Generator: Adobe Illustrator 26.0.3, SVG Export Plug-In . SVG Version: 6.00 Build 0)  -->
<svg version="1.0" id="katman_1" xmlns="http://www.w3.org/2000/svg" xmlns:xlink="http://www.w3.org/1999/xlink" x="0px" y="0px"
	 viewBox="0 0 600 450" style="enable-background:new 0 0 600 450;" xml:space="preserve">
<style type="text/css">
	.st0{fill:#517BBD;}
	.st1{fill:#31A853;}
	.st2{fill:#FBBC08;}
	.st3{fill-rule:evenodd;clip-rule:evenodd;fill:#E84336;}
	.st4{fill:#C6221F;}
</style>
<path class="st0" d="M140.3,364.7h58.9v-143l-84.1-63.1v180.8C115.1,353.4,126.4,364.7,140.3,364.7z"/>
<path class="st1" d="M401.1,364.7h58.9c13.9,0,25.2-11.3,25.2-25.2V158.7l-84.1,63.1V364.7z"/>
<path class="st2" d="M401.1,112.4v109.3l84.1-63.1V125c0-31.2-35.6-49-60.6-30.3L401.1,112.4z"/>
<path class="st3" d="M199.2,221.7V112.4l100.9,75.7l100.9-75.7v109.3l-100.9,75.7L199.2,221.7z"/>
<path class="st4" d="M115.1,125v33.6l84.1,63.1V112.4l-23.6-17.7C150.7,76,115.1,93.9,115.1,125z"/>
</svg>
